<svg width="24" height="24" viewBox="0 0 24 24" fill="none" xmlns="http://www.w3.org/2000/svg">
<path d="M19.551 7.46552C19.2667 7.16736 18.882 7 18.481 7C18.08 7 17.6953 7.16736 17.4109 7.46552L11.9621 13.1326L6.58905 7.46552C6.30468 7.16736 5.91999 7 5.51901 7C5.11803 7 4.73334 7.16736 4.44896 7.46552C4.3067 7.61434 4.19379 7.7914 4.11673 7.98648C4.03967 8.18156 4 8.39081 4 8.60214C4 8.81348 4.03967 9.02272 4.11673 9.2178C4.19379 9.41288 4.3067 9.58994 4.44896 9.73876L10.8844 16.5265C11.0255 16.6765 11.1934 16.7956 11.3783 16.8769C11.5633 16.9582 11.7617 17 11.9621 17C12.1624 17 12.3608 16.9582 12.5458 16.8769C12.7307 16.7956 12.8986 16.6765 13.0397 16.5265L19.551 9.73876C19.6933 9.58994 19.8062 9.41288 19.8833 9.2178C19.9603 9.02272 20 8.81348 20 8.60214C20 8.39081 19.9603 8.18156 19.8833 7.98648C19.8062 7.7914 19.6933 7.61434 19.551 7.46552Z" fill="white"/>
</svg>
